<svg xmlns="http://www.w3.org/2000/svg" viewBox="0 0 57 80" style="enable-background:new 0 0 57 80;" xml:space="preserve">
<path d="M0,25.7h10.7v2H6.5V39H4.2V27.7H0V25.7z"/>
<path d="M9.9,29.4h2v1.9h0c0.1-0.3,0.2-0.5,0.4-0.8c0.2-0.2,0.4-0.5,0.6-0.7c0.3-0.2,0.5-0.4,0.9-0.5c0.3-0.1,0.6-0.2,0.9-0.2
	c0.2,0,0.4,0,0.5,0c0.1,0,0.2,0,0.3,0v2c-0.1,0-0.3,0-0.5-0.1c-0.1,0-0.3,0-0.4,0c-0.4,0-0.7,0.1-1,0.2c-0.3,0.1-0.6,0.3-0.8,0.6
	c-0.2,0.3-0.4,0.6-0.6,1c-0.1,0.4-0.2,0.9-0.2,1.4V39H9.9V29.4z"/>
<path d="M16.1,25.7h2.1v2h-2.1V25.7z M16.1,29.4h2.1V39h-2.1V29.4z"/>
<path d="M20.2,29.4h2v1.3h0c0.3-0.6,0.7-1,1.2-1.2c0.5-0.2,1.1-0.4,1.7-0.4c0.8,0,1.4,0.1,2,0.4c0.6,0.3,1,0.6,1.4,1.1
	c0.4,0.5,0.6,1,0.8,1.6c0.2,0.6,0.3,1.3,0.3,2c0,0.6-0.1,1.3-0.3,1.9c-0.2,0.6-0.4,1.1-0.8,1.6c-0.3,0.5-0.8,0.8-1.3,1.1
	c-0.5,0.3-1.1,0.4-1.8,0.4c-0.3,0-0.6,0-0.9-0.1c-0.3,0-0.6-0.1-0.9-0.3c-0.3-0.1-0.6-0.3-0.8-0.5c-0.2-0.2-0.4-0.4-0.6-0.7h0v4.8
	h-2.1V29.4z M27.6,34.2c0-0.4-0.1-0.9-0.2-1.3c-0.1-0.4-0.3-0.8-0.5-1.1c-0.2-0.3-0.5-0.6-0.8-0.8c-0.3-0.2-0.7-0.3-1.2-0.3
	c-0.9,0-1.6,0.3-2,0.9c-0.4,0.6-0.7,1.4-0.7,2.5c0,0.5,0.1,0.9,0.2,1.4c0.1,0.4,0.3,0.8,0.5,1.1c0.2,0.3,0.5,0.5,0.8,0.7
	c0.3,0.2,0.7,0.3,1.2,0.3c0.5,0,0.9-0.1,1.2-0.3c0.3-0.2,0.6-0.5,0.8-0.8c0.2-0.3,0.4-0.7,0.5-1.1C27.5,35,27.6,34.6,27.6,34.2z"/>
<path d="M31.2,25.7h2.1V39h-2.1V25.7z"/>
<path d="M41.8,33.3c0-0.3-0.1-0.7-0.2-1c-0.1-0.3-0.3-0.6-0.5-0.8c-0.2-0.2-0.4-0.4-0.7-0.6c-0.3-0.1-0.6-0.2-1-0.2
	c-0.4,0-0.7,0.1-1,0.2c-0.3,0.1-0.6,0.3-0.8,0.5c-0.2,0.2-0.4,0.5-0.5,0.8c-0.1,0.3-0.2,0.6-0.2,1H41.8z M36.9,34.7
	c0,0.4,0,0.7,0.1,1.1c0.1,0.3,0.3,0.7,0.5,0.9c0.2,0.3,0.5,0.5,0.8,0.6c0.3,0.1,0.7,0.2,1.2,0.2c0.6,0,1.1-0.1,1.5-0.4
	c0.4-0.3,0.7-0.7,0.9-1.2h2c-0.1,0.5-0.3,1-0.6,1.4c-0.3,0.4-0.6,0.8-1,1c-0.4,0.3-0.8,0.5-1.3,0.6c-0.5,0.1-1,0.2-1.5,0.2
	c-0.8,0-1.4-0.1-2-0.4c-0.6-0.2-1.1-0.6-1.5-1c-0.4-0.4-0.7-1-0.9-1.6c-0.2-0.6-0.3-1.3-0.3-2c0-0.7,0.1-1.3,0.3-1.9
	c0.2-0.6,0.5-1.2,0.9-1.6c0.4-0.5,0.9-0.8,1.5-1.1c0.6-0.3,1.2-0.4,1.9-0.4c0.8,0,1.4,0.2,2,0.5c0.6,0.3,1.1,0.7,1.5,1.2
	c0.4,0.5,0.7,1.1,0.9,1.8c0.2,0.7,0.2,1.4,0.1,2.1H36.9z"/>
<path d="M1.3,44.3h5.8c0.9,0,1.7,0.1,2.3,0.4c0.6,0.3,1.1,0.6,1.4,1c0.3,0.4,0.5,0.9,0.6,1.3c0.1,0.5,0.2,0.9,0.2,1.3
	c0,0.4-0.1,0.9-0.2,1.3c-0.1,0.5-0.3,0.9-0.6,1.3c-0.3,0.4-0.8,0.8-1.4,1c-0.6,0.3-1.4,0.4-2.3,0.4H3.6v5.1H1.3V44.3z M3.6,50.6H7
	c0.3,0,0.5,0,0.8-0.1c0.3-0.1,0.5-0.2,0.7-0.4c0.2-0.2,0.4-0.4,0.6-0.7c0.1-0.3,0.2-0.6,0.2-1.1c0-0.4-0.1-0.8-0.2-1.1
	C9,47,8.8,46.8,8.6,46.7c-0.2-0.2-0.5-0.3-0.7-0.4c-0.3-0.1-0.6-0.1-0.9-0.1H3.6V50.6z"/>
<path d="M19.6,51.9c0-0.3-0.1-0.7-0.2-1c-0.1-0.3-0.3-0.6-0.5-0.8c-0.2-0.2-0.4-0.4-0.7-0.6c-0.3-0.1-0.6-0.2-1-0.2
	c-0.4,0-0.7,0.1-1,0.2c-0.3,0.1-0.6,0.3-0.8,0.5c-0.2,0.2-0.4,0.5-0.5,0.8c-0.1,0.3-0.2,0.6-0.2,1H19.6z M14.6,53.3
	c0,0.4,0,0.7,0.1,1.1c0.1,0.3,0.3,0.7,0.5,0.9c0.2,0.3,0.5,0.5,0.8,0.6c0.3,0.1,0.7,0.2,1.2,0.2c0.6,0,1.1-0.1,1.5-0.4
	c0.4-0.3,0.7-0.7,0.9-1.2h2c-0.1,0.5-0.3,1-0.6,1.4c-0.3,0.4-0.6,0.8-1,1c-0.4,0.3-0.8,0.5-1.3,0.6c-0.5,0.1-1,0.2-1.5,0.2
	c-0.8,0-1.4-0.1-2-0.4c-0.6-0.2-1.1-0.6-1.5-1c-0.4-0.4-0.7-1-0.9-1.6c-0.2-0.6-0.3-1.3-0.3-2c0-0.7,0.1-1.3,0.3-1.9
	c0.2-0.6,0.5-1.2,0.9-1.6c0.4-0.5,0.9-0.8,1.5-1.1c0.6-0.3,1.2-0.4,1.9-0.4c0.8,0,1.4,0.2,2,0.5c0.6,0.3,1.1,0.7,1.5,1.2
	c0.4,0.5,0.7,1.1,0.9,1.8c0.2,0.7,0.2,1.4,0.1,2.1H14.6z"/>
<path d="M30.9,55.5c0,0.3,0,0.4,0.1,0.6c0.1,0.1,0.2,0.2,0.4,0.2c0.1,0,0.1,0,0.2,0c0.1,0,0.2,0,0.3,0v1.5c-0.1,0-0.2,0-0.3,0.1
	c-0.1,0-0.2,0.1-0.4,0.1c-0.1,0-0.2,0-0.4,0.1c-0.1,0-0.2,0-0.3,0c-0.4,0-0.8-0.1-1.1-0.3c-0.3-0.2-0.5-0.5-0.6-0.9
	c-0.4,0.4-0.9,0.7-1.6,0.9c-0.6,0.2-1.2,0.3-1.8,0.3c-0.4,0-0.8-0.1-1.2-0.2c-0.4-0.1-0.7-0.3-1.1-0.5c-0.3-0.2-0.5-0.5-0.7-0.9
	c-0.2-0.4-0.3-0.8-0.3-1.2c0-0.6,0.1-1.1,0.3-1.5c0.2-0.4,0.5-0.7,0.9-0.9c0.4-0.2,0.8-0.4,1.2-0.4c0.4-0.1,0.9-0.2,1.3-0.2
	c0.4-0.1,0.7-0.1,1.1-0.1c0.3,0,0.6-0.1,0.9-0.2c0.3-0.1,0.5-0.2,0.6-0.3c0.2-0.2,0.2-0.4,0.2-0.7c0-0.3-0.1-0.5-0.2-0.7
	c-0.1-0.2-0.3-0.3-0.5-0.4c-0.2-0.1-0.4-0.2-0.6-0.2c-0.2,0-0.5-0.1-0.7-0.1c-0.6,0-1.1,0.1-1.5,0.4c-0.4,0.2-0.6,0.6-0.6,1.2h-2.1
	c0-0.6,0.2-1.1,0.4-1.5s0.6-0.7,1-1c0.4-0.2,0.9-0.4,1.4-0.5c0.5-0.1,1-0.1,1.6-0.1c0.5,0,0.9,0,1.4,0.1c0.5,0.1,0.9,0.3,1.2,0.5
	c0.4,0.2,0.7,0.5,0.9,0.9c0.2,0.3,0.3,0.8,0.3,1.3V55.5z M28.8,52.8c-0.3,0.2-0.7,0.3-1.2,0.4c-0.5,0-0.9,0.1-1.4,0.2
	c-0.2,0-0.4,0.1-0.6,0.2c-0.2,0.1-0.4,0.2-0.6,0.3c-0.2,0.1-0.3,0.3-0.4,0.5c-0.1,0.2-0.1,0.4-0.1,0.7c0,0.2,0.1,0.4,0.2,0.6
	c0.1,0.2,0.3,0.3,0.5,0.4c0.2,0.1,0.4,0.1,0.6,0.2c0.2,0,0.4,0.1,0.6,0.1c0.2,0,0.5,0,0.8-0.1c0.3-0.1,0.5-0.2,0.8-0.3
	c0.2-0.1,0.5-0.3,0.6-0.6c0.2-0.2,0.2-0.5,0.2-0.9V52.8z"/>
<path d="M32.9,44.3H35v7.5l3.8-3.9h2.6l-3.7,3.5l4,6.1h-2.6l-2.9-4.7L35,54.2v3.4h-2.1V44.3z"/>
<path d="M44,54.5c0.1,0.6,0.3,1.1,0.7,1.3c0.4,0.2,0.9,0.4,1.5,0.4c0.2,0,0.4,0,0.7,0c0.3,0,0.5-0.1,0.7-0.2
	c0.2-0.1,0.4-0.2,0.5-0.4c0.1-0.2,0.2-0.4,0.2-0.7c0-0.3-0.1-0.5-0.3-0.7c-0.2-0.2-0.4-0.3-0.7-0.4c-0.3-0.1-0.6-0.2-1-0.3
	c-0.4-0.1-0.7-0.2-1.1-0.2c-0.4-0.1-0.8-0.2-1.2-0.3c-0.4-0.1-0.7-0.3-1-0.5c-0.3-0.2-0.5-0.5-0.7-0.8c-0.2-0.3-0.3-0.7-0.3-1.2
	c0-0.5,0.1-1,0.4-1.3c0.3-0.4,0.6-0.6,1-0.9c0.4-0.2,0.8-0.4,1.3-0.5c0.5-0.1,0.9-0.1,1.4-0.1c0.5,0,1,0.1,1.4,0.2
	c0.5,0.1,0.9,0.3,1.2,0.5c0.4,0.2,0.7,0.5,0.9,0.9c0.2,0.4,0.4,0.8,0.5,1.4h-2.2c-0.1-0.5-0.3-0.8-0.7-1c-0.4-0.2-0.8-0.3-1.2-0.3
	c-0.1,0-0.3,0-0.5,0c-0.2,0-0.4,0.1-0.6,0.1c-0.2,0.1-0.3,0.2-0.4,0.3c-0.1,0.1-0.2,0.3-0.2,0.5c0,0.3,0.1,0.5,0.3,0.6
	c0.2,0.2,0.4,0.3,0.7,0.4c0.3,0.1,0.6,0.2,1,0.3c0.4,0.1,0.8,0.2,1.2,0.2c0.4,0.1,0.8,0.2,1.1,0.3c0.4,0.1,0.7,0.3,1,0.5
	c0.3,0.2,0.5,0.5,0.7,0.8c0.2,0.3,0.3,0.7,0.3,1.2c0,0.6-0.1,1.1-0.4,1.5c-0.3,0.4-0.6,0.7-1,1c-0.4,0.2-0.9,0.4-1.4,0.5
	c-0.5,0.1-1,0.2-1.5,0.2c-0.6,0-1.2-0.1-1.7-0.2c-0.5-0.1-1-0.3-1.3-0.6c-0.4-0.3-0.7-0.6-0.9-1c-0.2-0.4-0.3-0.9-0.3-1.5H44z"/>
<path d="M1.3,62.9h2.3v11.3h6.7v2H1.3V62.9z"/>
<path d="M11.3,62.9h2.1v2h-2.1V62.9z M11.3,66.6h2.1v9.6h-2.1V66.6z"/>
<path d="M15.4,62.9h2.1v4.9h0c0.1-0.2,0.3-0.4,0.5-0.6c0.2-0.2,0.4-0.3,0.7-0.5c0.3-0.1,0.5-0.2,0.8-0.3c0.3-0.1,0.6-0.1,0.8-0.1
	c0.8,0,1.4,0.1,2,0.4c0.6,0.3,1,0.6,1.4,1.1c0.4,0.5,0.6,1,0.8,1.6c0.2,0.6,0.3,1.3,0.3,2c0,0.6-0.1,1.3-0.3,1.9
	c-0.2,0.6-0.4,1.1-0.8,1.6c-0.3,0.5-0.8,0.8-1.3,1.1c-0.5,0.3-1.1,0.4-1.8,0.4c-0.3,0-0.6,0-1-0.1c-0.3,0-0.6-0.1-0.9-0.2
	c-0.3-0.1-0.6-0.3-0.8-0.5c-0.2-0.2-0.4-0.5-0.6-0.8h0v1.3h-2V62.9z M22.8,71.4c0-0.4-0.1-0.9-0.2-1.3c-0.1-0.4-0.3-0.8-0.5-1.1
	c-0.2-0.3-0.5-0.6-0.8-0.8C21,68.1,20.6,68,20.1,68c-0.9,0-1.6,0.3-2,0.9c-0.4,0.6-0.7,1.4-0.7,2.5c0,0.5,0.1,0.9,0.2,1.4
	c0.1,0.4,0.3,0.8,0.5,1.1c0.2,0.3,0.5,0.5,0.8,0.7c0.3,0.2,0.7,0.3,1.2,0.3c0.5,0,0.9-0.1,1.2-0.3c0.3-0.2,0.6-0.5,0.8-0.8
	c0.2-0.3,0.4-0.7,0.5-1.1C22.7,72.2,22.8,71.8,22.8,71.4z"/>
<path d="M26.3,66.6h2v1.9h0c0.1-0.3,0.2-0.5,0.4-0.8c0.2-0.2,0.4-0.5,0.6-0.7c0.3-0.2,0.5-0.4,0.9-0.5c0.3-0.1,0.6-0.2,0.9-0.2
	c0.2,0,0.4,0,0.5,0c0.1,0,0.2,0,0.3,0v2c-0.1,0-0.3,0-0.5-0.1c-0.1,0-0.3,0-0.4,0c-0.4,0-0.7,0.1-1,0.2c-0.3,0.1-0.6,0.3-0.8,0.6
	c-0.2,0.3-0.4,0.6-0.6,1c-0.1,0.4-0.2,0.9-0.2,1.4v4.6h-2.1V66.6z"/>
<path d="M40.5,74c0,0.3,0,0.4,0.1,0.6c0.1,0.1,0.2,0.2,0.4,0.2c0.1,0,0.1,0,0.2,0s0.2,0,0.3,0v1.5c-0.1,0-0.2,0-0.3,0.1
	c-0.1,0-0.2,0.1-0.4,0.1c-0.1,0-0.2,0-0.4,0.1c-0.1,0-0.2,0-0.3,0c-0.4,0-0.8-0.1-1.1-0.3c-0.3-0.2-0.5-0.5-0.6-0.9
	c-0.4,0.4-0.9,0.7-1.6,0.9c-0.6,0.2-1.2,0.3-1.8,0.3c-0.4,0-0.8-0.1-1.2-0.2c-0.4-0.1-0.7-0.3-1.1-0.5c-0.3-0.2-0.5-0.5-0.7-0.9
	C32,74.5,32,74.1,32,73.6c0-0.6,0.1-1.1,0.3-1.5c0.2-0.4,0.5-0.7,0.9-0.9c0.4-0.2,0.8-0.4,1.2-0.4c0.4-0.1,0.9-0.2,1.3-0.2
	c0.4-0.1,0.7-0.1,1.1-0.1c0.3,0,0.6-0.1,0.9-0.2c0.3-0.1,0.5-0.2,0.6-0.3c0.2-0.2,0.2-0.4,0.2-0.7c0-0.3-0.1-0.5-0.2-0.7
	c-0.1-0.2-0.3-0.3-0.5-0.4c-0.2-0.1-0.4-0.2-0.6-0.2C37,68,36.7,68,36.5,68c-0.6,0-1.1,0.1-1.5,0.4c-0.4,0.2-0.6,0.6-0.6,1.2h-2.1
	c0-0.6,0.2-1.1,0.4-1.5c0.3-0.4,0.6-0.7,1-1c0.4-0.2,0.9-0.4,1.4-0.5c0.5-0.1,1-0.1,1.6-0.1c0.5,0,0.9,0,1.4,0.1
	c0.5,0.1,0.9,0.3,1.2,0.5c0.4,0.2,0.7,0.5,0.9,0.9c0.2,0.3,0.3,0.8,0.3,1.3V74z M38.4,71.4c-0.3,0.2-0.7,0.3-1.2,0.4
	c-0.5,0-0.9,0.1-1.4,0.2c-0.2,0-0.4,0.1-0.6,0.2c-0.2,0.1-0.4,0.2-0.6,0.3c-0.2,0.1-0.3,0.3-0.4,0.5c-0.1,0.2-0.1,0.4-0.1,0.7
	c0,0.2,0.1,0.4,0.2,0.6c0.1,0.2,0.3,0.3,0.5,0.4c0.2,0.1,0.4,0.1,0.6,0.2c0.2,0,0.4,0.1,0.6,0.1c0.2,0,0.5,0,0.8-0.1
	c0.3-0.1,0.5-0.2,0.8-0.3c0.2-0.1,0.5-0.3,0.6-0.6c0.2-0.2,0.2-0.5,0.2-0.9V71.4z"/>
<path d="M42.4,66.6h2v1.9h0c0.1-0.3,0.2-0.5,0.4-0.8c0.2-0.2,0.4-0.5,0.6-0.7c0.3-0.2,0.5-0.4,0.9-0.5c0.3-0.1,0.6-0.2,0.9-0.2
	c0.2,0,0.4,0,0.5,0c0.1,0,0.2,0,0.3,0v2c-0.1,0-0.3,0-0.5-0.1c-0.1,0-0.3,0-0.4,0c-0.4,0-0.7,0.1-1,0.2c-0.3,0.1-0.6,0.3-0.8,0.6
	c-0.2,0.3-0.4,0.6-0.6,1c-0.1,0.4-0.2,0.9-0.2,1.4v4.6h-2.1V66.6z"/>
<path d="M47.5,66.6h2.3l2.5,7.2h0l2.4-7.2H57l-3.7,10.1c-0.2,0.4-0.3,0.8-0.5,1.2c-0.2,0.4-0.4,0.7-0.6,1c-0.2,0.3-0.5,0.6-0.9,0.7
	c-0.4,0.2-0.8,0.3-1.4,0.3c-0.5,0-1,0-1.5-0.1v-1.8c0.2,0,0.3,0,0.5,0.1c0.2,0,0.3,0.1,0.5,0.1c0.2,0,0.5,0,0.6-0.1
	c0.2-0.1,0.3-0.2,0.4-0.3c0.1-0.1,0.2-0.2,0.3-0.4c0.1-0.2,0.1-0.3,0.2-0.6l0.2-0.7L47.5,66.6z"/>
<path d="M37.4,11c-0.5,0.6-1.4,0.6-1.9,0l-9-10.6c-0.5-0.6-1.4-0.6-1.9,0l-9,10.6c-0.5,0.6-1.4,0.6-1.9,0l-3.3-4.2
	c-0.5-0.6-1.5-0.6-2,0l-7.1,9.1c-0.6,0.8-0.1,2,1,2h46.3c1,0,1.6-1.2,1-2l-7.1-9.1c-0.5-0.6-1.5-0.6-2,0L37.4,11z"/>
</svg>
